[img]http://img805.imageshack.us/img805/9427/apollo18.jpg[/img]
[code]
Title: Apollo 18 2011 R5 LiNE XviD - VISUALiSE
Format: Xvid
Language: English
Subtitles: No
Imdb: http://www.imdb.com/title/tt1772240/

Plot:
Decades-old found footage from NASA's abandoned Apollo 18 mission, 
where two American astronauts were sent on a secret expedition, 
reveals the reason the U.S. has never returned to the moon.

Sources:
Video: Russians - Many Thanks 
Audio: MiSTERE - Many Thanks 

Release Notes:
Thanks to the russians for DVD9 and big thanks 
to MiSTERE for the FULL LiNE   
Ripped video and ran sum filters and then 
muxed audio to encode 
enjoy. 


Info:
Video
ID                               : 0
Format                           : MPEG-4 Visual
Format profile                   : Advanced Simple@L5
Format settings, BVOP            : 2
Format settings, QPel            : No
Format settings, GMC             : No warppoints
Format settings, Matrix          : Default (H.263)
Codec ID                         : XVID
Codec ID/Hint                    : XviD
Duration                         : 1h 23mn
Bit rate                         : 1 470 Kbps
Width                            : 720 pixels
Height                           : 356 pixels
Display aspect ratio             : 2.022
Frame rate                       : 25.000 fps
Color space                      : YUV
Chroma subsampling               : 4:2:0
Bit depth                        : 8 bits
Scan type                        : Progressive
Compression mode                 : Lossy
Bits/(Pixel*Frame)               : 0.229
Stream size                      : 874 MiB (91%)
Writing library                  : XviD 63

Audio
ID                               : 1
Format                           : MPEG Audio
Format version                   : Version 1
Format profile                   : Layer 3
Mode                             : Joint stereo
Mode extension                   : MS Stereo
Codec ID                         : 55
Codec ID/Hint                    : MP3
Duration                         : 1h 23mn
Bit rate mode                    : Constant
Bit rate                         : 128 Kbps
Channel(s)                       : 2 channels
Sampling rate                    : 44.1 KHz
Compression mode                 : Lossy
Stream size                      : 76.1 MiB (8%)
Alignment                        : Aligned on interleaves
Interleave, duration             : 40 ms (1.00 video frame)
Writing library                  : LAME3.98r
Encoding settings                : -m j -V 4 -q 2 -lowpass 17 -b 128
[/code]
Screens:
[img]http://img405.imageshack.us/img405/239/27529142.png[/img]
[img]http://img5.imageshack.us/img5/4893/35734353.png[/img]
[img]http://img845.imageshack.us/img845/995/38802361.png[/img]
[img]http://img85.imageshack.us/img85/2726/77446063.png[/img]